<?xml version="1.0" standalone="no"?>
<!DOCTYPE svg PUBLIC "-//W3C//DTD SVG 20010904//EN"
 "http://www.w3.org/TR/2001/REC-SVG-20010904/DTD/svg10.dtd">
<svg version="1.0" xmlns="http://www.w3.org/2000/svg"
 width="1200.000000pt" height="648.000000pt" viewBox="0 0 1200.000000 648.000000"
 preserveAspectRatio="xMidYMid meet">

<g transform="translate(0.000000,648.000000) scale(0.100000,-0.100000)"
fill="#000000" stroke="none">
<path d="M11087 4749 c-14 -19 -37 -19 -5113 -19 -4367 0 -5103 -2 -5126 -14
-24 -13 -28 -12 -40 6 -13 19 -18 20 -64 9 -27 -6 -111 -16 -187 -21 -155 -12
-174 -20 -223 -94 -26 -39 -27 -45 -26 -176 1 -164 -12 -225 -47 -224 -22 1
-20 -3 18 -36 l43 -36 -3 -711 -4 -711 -58 -57 c-56 -55 -97 -121 -111 -175
-4 -18 -1 -15 9 8 8 17 22 32 31 32 11 0 14 6 9 20 -6 19 3 26 29 21 5 -1 4 5
-3 13 -11 13 -8 14 23 9 28 -4 36 -2 36 10 0 8 -5 18 -10 20 -6 3 -5 4 2 3 21
-4 26 -44 27 -199 l1 -148 54 -55 55 -54 160 -1 c89 -1 166 -3 171 -4 6 -1 13
-3 16 -4 4 0 1 -7 -5 -14 -6 -8 -8 -17 -4 -20 3 -4 -2 -17 -13 -29 -19 -23
-19 -23 1 -7 60 49 78 67 92 93 10 19 18 25 22 17 6 -9 593 -11 2417 -11 2445
-1 7683 17 7741 26 19 3 33 11 35 22 2 13 9 8 25 -19 34 -55 61 -75 76 -59 9
10 9 11 0 6 -17 -9 -17 2 0 19 10 10 54 13 171 13 174 0 180 2 243 71 l33 36
0 130 c0 177 6 205 38 205 14 0 22 -3 19 -7 -4 -3 4 -14 19 -23 14 -10 25 -20
25 -24 -1 -3 2 -6 6 -5 4 0 18 -21 31 -48 17 -36 21 -40 17 -18 -10 47 -54
116 -111 171 l-52 51 -3 716 -3 716 39 37 c22 20 33 31 24 25 -39 -27 -61 70
-58 252 2 117 2 117 -29 161 -46 64 -83 83 -167 85 -82 2 -230 20 -262 32 -17
6 -26 4 -36 -12z m-10227 -79 c0 -11 -2 -20 -5 -20 -2 0 -9 9 -15 20 -9 16 -8
20 5 20 8 0 15 -9 15 -20z m5554 -30 c-6 -6 -10 -3 -10 10 0 13 4 16 10 10 7
-7 7 -13 0 -20z m479 15 c4 -8 2 -17 -3 -20 -6 -4 -10 3 -10 14 0 25 6 27 13
6z m314 0 c0 -8 -4 -12 -9 -9 -5 3 -6 10 -3 15 9 13 12 11 12 -6z m480 0 c0
-8 -4 -12 -9 -9 -5 3 -6 10 -3 15 9 13 12 11 12 -6z m968 6 c3 -5 2 -12 -3
-15 -5 -3 -9 1 -9 9 0 17 3 19 12 6z m-2085 -16 c0 -8 -4 -15 -9 -15 -13 0
-22 16 -14 24 11 11 23 6 23 -9z m2567 -1 c-3 -3 -12 -4 -19 -1 -8 3 -5 6 6 6
11 1 17 -2 13 -5z m2275 -118 c10 -7 15 -16 11 -19 -3 -4 -1 -7 4 -7 14 0 6
-59 -10 -78 -18 -22 -77 -10 -100 20 -19 26 -19 28 -3 62 14 30 22 36 49 36
18 0 40 -7 49 -14z m-10836 -41 c16 -39 9 -63 -26 -88 -22 -15 -64 -12 -78 7
-36 45 -1 116 58 116 26 0 33 -6 46 -35z m1797 18 c-5 -12 -3 -14 8 -8 10 6
11 5 3 -4 -6 -6 -18 -9 -27 -5 -13 5 -14 9 -4 20 17 19 28 17 20 -3z m173 6
c8 -14 -11 -33 -25 -25 -11 7 -4 36 9 36 5 0 12 -5 16 -11z m484 -15 c0 -8 -4
-14 -10 -14 -5 0 -10 9 -10 21 0 11 5 17 10 14 6 -3 10 -13 10 -21z m170 6 c0
-13 -19 -22 -30 -15 -14 9 0 34 16 28 8 -3 14 -9 14 -13z m157 5 c8 -21 -1
-28 -26 -20 -17 5 -18 9 -8 20 16 19 26 18 34 0z m313 -19 c-7 -7 -15 -5 -22
3 -11 10 -10 11 5 5 14 -5 16 -2 11 12 -5 16 -4 16 5 4 6 -9 7 -18 1 -24z
m3090 0 c0 -5 -3 -6 -7 -3 -3 4 -11 3 -17 -3 -7 -5 -18 -5 -25 0 -12 7 -12 10
0 23 10 11 18 12 31 3 10 -6 18 -15 18 -20z m450 0 c-14 -14 -24 0 -16 21 6
15 8 15 16 3 6 -9 5 -19 0 -24z m173 19 c7 -18 -9 -29 -30 -21 -12 5 -13 9 -3
21 16 19 26 19 33 0z m150 -20 c-22 -16 -38 2 -21 22 8 10 14 10 24 2 12 -10
11 -14 -3 -24z m473 20 c-3 -8 0 -15 6 -15 6 0 9 -3 5 -6 -3 -4 -13 -4 -22 0
-13 5 -14 8 -3 20 17 20 22 20 14 1z m327 -18 c-3 -5 -10 -4 -15 1 -6 6 -7 16
-3 22 6 9 9 9 16 -1 4 -7 5 -17 2 -22z m477 -1 c-14 -14 -22 -2 -14 18 5 14 9
15 15 4 4 -7 4 -17 -1 -22z m170 8 c0 -14 -21 -19 -33 -7 -9 9 13 34 24 27 5
-3 9 -12 9 -20z m160 0 c0 -14 -21 -19 -33 -7 -9 9 13 34 24 27 5 -3 9 -12 9
-20z m307 6 c-1 -20 -8 -25 -20 -14 -7 8 3 34 13 34 5 0 8 -9 7 -20z m-6743
-5 c4 -10 -1 -15 -14 -15 -20 0 -26 11 -13 23 10 11 20 8 27 -8z m166 0 c0
-17 -2 -18 -25 -9 -13 5 -14 8 -3 15 19 13 28 11 28 -6z m655 6 c8 -14 -13
-24 -33 -16 -14 5 -14 7 -2 15 19 12 27 12 35 1z m309 -6 c-4 -8 -8 -15 -10
-15 -2 0 -4 7 -4 15 0 8 4 15 10 15 5 0 7 -7 4 -15z m664 -10 c-3 -3 -13 -2
-22 1 -14 5 -15 9 -4 15 13 8 36 -6 26 -16z m1597 16 c3 -5 2 -12 -3 -15 -5
-3 -9 1 -9 9 0 17 3 19 12 6z m165 -5 c0 -8 -4 -17 -9 -21 -12 -7 -24 12 -16
25 9 15 25 12 25 -4z m165 0 c12 -12 12 -15 -2 -20 -19 -8 -38 8 -29 23 9 14
15 14 31 -3z m160 -6 c0 -22 -29 -18 -33 3 -3 14 1 18 15 15 10 -2 18 -10 18
-18z m315 -6 c0 -16 -2 -16 -24 -8 -13 5 -14 9 -5 20 13 16 29 9 29 -12z m155
16 c11 -17 -5 -32 -21 -19 -7 6 -11 15 -8 20 7 12 21 11 29 -1z m641 -1 c10
-17 -13 -36 -27 -22 -12 12 -4 33 11 33 5 0 12 -5 16 -11z m159 -19 c-5 -8
-11 -8 -21 1 -12 10 -12 14 -2 20 16 10 33 -5 23 -21z m637 8 c-12 -12 -35 -1
-27 12 3 5 13 6 21 3 10 -4 12 -9 6 -15z m163 11 c10 -15 -1 -23 -20 -15 -9 3
-13 10 -10 16 8 13 22 13 30 -1z m640 2 c7 -12 -12 -24 -25 -16 -11 7 -4 25
10 25 5 0 11 -4 15 -9z m-5125 -5 c0 -3 -4 -8 -10 -11 -5 -3 -10 -1 -10 4 0 6
5 11 10 11 6 0 10 -2 10 -4z m490 -2 c0 -8 -19 -13 -24 -6 -3 5 1 9 9 9 8 0
15 -2 15 -3z m-2065 -84 c6 -1 21 -1 35 -1 14 1 77 0 140 -2 138 -4 180 -19
180 -68 0 -16 -7 -40 -16 -54 -13 -21 -13 -24 0 -32 8 -4 19 -27 24 -50 9 -38
7 -45 -17 -72 -14 -16 -35 -31 -46 -33 -11 -2 -23 -7 -27 -12 -3 -5 -19 -4
-38 4 -26 11 -41 11 -88 0 -31 -7 -69 -12 -84 -11 -15 1 -36 -2 -47 -8 -13 -8
-28 -8 -46 -1 -17 7 -24 7 -20 0 3 -6 -3 -10 -15 -10 -12 0 -19 3 -17 8 3 4
-23 7 -56 7 -34 0 -79 4 -99 9 -36 8 -38 7 -38 -16 0 -34 20 -52 35 -32 10 15
13 15 28 -1 9 -9 17 -21 17 -26 0 -17 -31 -22 -58 -9 -15 6 -24 8 -19 4 4 -4
0 -18 -8 -31 -30 -45 3 -124 38 -94 10 8 19 7 32 -3 27 -20 10 -38 -30 -30
-28 5 -34 3 -40 -16 -4 -12 -3 -26 2 -31 5 -5 101 -10 213 -12 176 -2 209 -5
230 -20 14 -10 24 -21 24 -25 -1 -4 1 -13 3 -19 3 -7 0 -27 -6 -45 -7 -19 -9
-55 -5 -90 8 -68 -11 -110 -46 -101 -11 3 -20 1 -20 -3 0 -5 -33 -9 -74 -10
-43 0 -81 -5 -89 -13 -11 -9 -16 -9 -19 0 -3 10 -76 18 -175 19 -31 0 -50 43
-51 110 -1 71 -16 112 -38 103 -12 -4 -15 -2 -12 8 3 8 10 13 16 12 10 -2 26
56 18 64 -3 3 -26 5 -53 5 -68 1 -90 12 -98 47 -6 29 -25 44 -25 21 0 -5 -4
-10 -10 -10 -5 0 -10 9 -10 20 0 14 6 20 18 18 22 -4 28 40 19 134 -6 64 21
82 140 87 8 1 12 15 11 36 -1 25 -4 33 -12 25 -13 -13 -29 -13 -21 0 4 7 -2 9
-17 5 -12 -3 -29 -1 -37 4 -12 8 -12 12 3 26 11 12 21 14 29 7 21 -17 47 -10
53 15 4 12 10 20 15 17 11 -6 11 14 0 78 -7 40 -5 51 16 76 l23 30 128 -3 c70
-2 132 -4 137 -5z m630 -4 c18 -8 38 -23 44 -34 13 -25 14 -79 2 -86 -4 -3 -2
-29 6 -58 10 -38 11 -59 3 -76 -13 -29 -13 -102 0 -102 5 0 0 -17 -11 -37 -15
-26 -19 -45 -14 -67 4 -17 6 -89 6 -161 -1 -71 -1 -148 0 -170 3 -58 3 -96 0
-135 -5 -90 0 -184 12 -208 16 -32 14 -71 -2 -82 -14 -8 -5 -80 10 -80 11 0 0
-56 -16 -89 -10 -19 -9 -34 2 -72 11 -38 12 -57 3 -83 -6 -18 -8 -49 -4 -67
10 -53 7 -73 -16 -91 -21 -17 -21 -19 -6 -49 19 -38 20 -68 3 -90 -17 -22 -55
-41 -68 -33 -6 4 -15 1 -19 -6 -6 -10 -16 -6 -39 18 -33 32 -38 60 -19 95 17
32 18 45 2 58 -21 17 -29 77 -14 105 19 35 -1 99 -32 101 -12 1 -25 -2 -29 -8
-6 -11 -59 -2 -59 10 0 4 12 14 27 22 20 11 27 11 30 2 3 -7 9 -13 14 -13 6 0
7 5 4 10 -3 6 3 10 13 10 26 0 51 39 42 65 -11 30 -47 58 -65 51 -20 -7 -65 3
-65 15 0 5 6 9 14 9 8 0 16 6 19 13 3 9 9 9 25 0 45 -27 85 66 45 105 -9 9
-19 17 -22 17 -3 0 -5 5 -3 10 1 6 -4 1 -12 -9 -15 -18 -16 -18 -43 -1 -20 14
-24 20 -13 23 8 3 18 10 22 15 4 8 14 7 32 -1 22 -10 24 -9 19 6 -3 9 -3 14 1
10 9 -7 40 21 48 44 4 9 1 26 -6 40 -14 26 -12 66 4 82 25 25 -10 106 -47 106
-12 0 -23 -5 -25 -11 -3 -9 -10 -8 -25 1 -19 12 -19 15 -6 29 12 12 19 12 35
2 17 -11 22 -10 29 1 7 10 9 10 9 1 0 -7 5 -13 11 -13 6 0 9 6 6 14 -3 8 1 20
9 26 20 18 17 64 -6 85 -11 10 -20 14 -20 9 0 -5 -4 -3 -9 5 -8 12 -13 12 -24
3 -14 -12 -47 -7 -47 8 0 4 7 13 15 20 12 10 19 10 27 2 15 -15 31 -15 22 0
-5 7 -2 9 9 5 10 -4 21 3 33 21 16 24 16 31 2 82 -13 48 -13 60 -2 75 8 10 14
29 14 41 0 28 -20 74 -32 74 -5 0 -6 -5 -2 -12 4 -7 3 -8 -4 -4 -18 11 -15 39
4 32 8 -3 13 -2 10 3 -3 4 0 22 6 39 16 41 -5 86 -35 76 -15 -5 -17 -3 -11 7
6 12 5 12 -8 1 -12 -10 -21 -10 -42 -1 -27 13 -37 35 -10 25 8 -3 13 -2 10 3
-8 13 16 20 46 14 20 -4 27 1 36 24 13 31 15 62 8 108 -11 67 61 103 139 71z
m341 -9 c23 -20 27 -31 24 -63 -3 -47 -3 -80 3 -161 3 -34 2 -62 -2 -61 -17 2
-21 -3 -9 -16 8 -8 19 -11 28 -6 8 4 32 10 52 13 30 4 43 -1 72 -25 l36 -29
-6 -78 c-4 -53 -2 -86 6 -101 9 -18 9 -21 0 -15 -8 5 -11 3 -8 -6 2 -7 -1 -25
-8 -38 -18 -35 -11 -39 43 -28 38 7 56 6 86 -7 21 -9 35 -21 32 -25 -3 -5 -1
-20 4 -33 6 -15 4 -32 -5 -49 -8 -16 -11 -41 -7 -65 7 -42 7 -65 0 -129 -2
-22 0 -48 6 -59 5 -11 5 -34 -2 -61 -9 -34 -8 -50 4 -79 18 -42 9 -74 -30
-110 -18 -17 -22 -26 -13 -29 8 -3 5 -6 -7 -7 -64 -5 -73 -5 -69 2 3 4 0 8 -5
8 -6 0 -11 -6 -12 -12 -2 -41 -12 -77 -29 -105 -17 -30 -18 -35 -4 -63 9 -16
13 -38 10 -47 -10 -31 -82 -103 -102 -103 -16 0 -17 2 -4 11 12 9 12 10 -3 5
-10 -3 -23 -6 -29 -6 -6 0 -7 -7 -4 -16 3 -8 2 -12 -4 -9 -6 4 -8 -5 -4 -22 4
-21 -2 -36 -21 -58 -18 -20 -24 -36 -20 -50 19 -57 17 -80 -10 -107 -34 -34
-84 -35 -120 -2 -28 26 -30 45 -11 89 11 25 11 35 -2 59 -30 61 -27 81 20 115
23 17 51 31 62 31 31 0 46 13 51 42 4 22 2 25 -15 21 -11 -3 -20 -9 -20 -14 0
-14 -20 -10 -37 7 -14 14 -14 17 0 32 15 14 18 14 35 -1 17 -16 20 -15 42 10
24 28 28 56 16 113 -6 30 -3 39 21 67 19 21 41 33 68 38 74 12 73 11 70 63 -1
26 2 52 6 58 5 6 4 35 0 65 -6 34 -5 61 1 73 6 11 7 40 2 75 -10 66 -8 93 8
102 6 4 8 20 4 40 -3 19 -7 40 -8 47 -1 6 -5 12 -9 12 -4 0 -5 13 -3 29 5 31
-14 46 -47 36 -10 -3 -35 3 -57 14 -50 26 -67 64 -57 128 9 54 7 90 -6 115 -5
10 -5 19 0 22 5 3 7 15 4 25 -4 15 -12 18 -39 15 -44 -5 -68 7 -103 56 -24 34
-30 37 -42 25 -11 -12 -22 -12 -52 -4 -20 5 -37 13 -37 17 0 13 41 33 52 25
15 -9 62 -14 54 -6 -3 4 0 16 8 29 12 17 13 30 5 58 -9 34 -29 59 -29 37 0 -6
-4 -11 -9 -11 -4 0 -6 11 -3 25 2 14 7 24 9 21 3 -2 18 11 35 30 26 29 37 34
73 34 32 0 52 -7 71 -23z m948 12 c14 -7 23 -15 21 -19 -2 -4 7 -5 20 -2 14 2
28 8 31 13 3 5 24 9 48 9 36 0 47 -5 67 -31 26 -34 34 -76 18 -95 -7 -8 -5
-30 7 -69 13 -45 14 -63 5 -82 -9 -19 -9 -40 0 -83 8 -43 8 -63 -1 -79 -12
-23 -5 -76 12 -98 7 -8 5 -23 -6 -45 -12 -24 -15 -46 -10 -89 5 -44 3 -62 -10
-80 -20 -29 -20 -53 -1 -82 10 -16 12 -32 6 -57 -4 -19 -4 -48 1 -65 23 -76
25 -91 11 -103 -16 -15 -16 -36 0 -82 11 -30 10 -39 -7 -68 -17 -31 -18 -36
-3 -73 9 -22 11 -39 6 -39 -6 0 -8 -9 -4 -20 3 -10 1 -29 -5 -40 -8 -15 -8
-30 1 -55 7 -19 17 -35 21 -35 5 0 8 -6 6 -12 -1 -7 1 -25 5 -40 6 -24 13 -28
41 -28 19 0 48 -8 64 -17 26 -15 36 -16 64 -5 42 15 78 16 78 2 0 -14 38 -12
84 4 27 9 49 11 75 4 20 -5 41 -9 46 -8 6 0 60 2 122 4 61 2 116 7 121 10 6 3
22 0 37 -8 19 -10 36 -12 58 -5 47 13 100 11 123 -5 16 -13 21 -12 36 1 12 11
46 15 140 16 l123 2 19 -36 c18 -34 19 -39 4 -83 -12 -36 -13 -57 -6 -83 12
-43 0 -75 -36 -98 -24 -16 -28 -16 -70 0 -43 17 -46 17 -70 -3 -22 -16 -32
-18 -68 -10 -89 19 -98 20 -98 10 0 -18 -57 -24 -87 -9 -29 14 -60 12 -78 -4
-15 -15 -82 -10 -99 7 -14 14 -19 13 -53 -10 -45 -31 -53 -32 -83 -6 -33 29
-68 36 -87 18 -12 -12 -23 -13 -51 -6 -75 20 -89 20 -105 3 -20 -19 -74 -18
-99 3 -17 14 -63 8 -53 -8 10 -17 -64 -21 -101 -5 -46 19 -73 19 -80 0 -7 -16
-39 -12 -86 11 -22 12 -31 11 -55 -1 -81 -42 -150 17 -125 107 5 20 6 41 1 50
-5 9 -9 31 -9 49 1 81 9 207 15 237 4 19 3 37 -4 45 -6 8 -9 23 -6 36 2 12 0
19 -6 16 -5 -4 -9 0 -9 9 0 8 5 16 12 18 15 5 15 72 -2 102 -9 17 -10 36 -4
63 17 77 1 114 -41 95 -21 -10 -29 -9 -40 2 -18 17 -3 32 34 34 13 0 29 6 34
11 15 15 32 250 19 263 -6 6 -6 27 3 63 7 33 9 59 3 69 -16 29 -19 67 -7 99
13 38 -3 92 -23 82 -7 -4 -4 1 6 9 23 19 18 20 -20 6 -36 -14 -70 -4 -53 16 8
10 22 12 45 8 29 -5 34 -3 47 23 11 20 13 40 7 71 -10 55 -13 57 -48 39 -23
-11 -34 -12 -50 -3 -21 11 -21 12 -1 24 12 8 25 9 36 4 45 -25 82 39 65 113
-13 60 19 105 80 114 4 1 18 -4 32 -10z m1957 -11 c4 -7 13 -7 25 0 34 17 78
20 114 8 28 -9 41 -9 62 2 17 8 40 11 60 6 31 -6 46 -6 141 -2 21 1 41 -2 45
-8 8 -11 52 -14 52 -3 0 12 51 20 81 14 17 -4 26 -11 23 -17 -5 -7 -2 -8 6 -3
7 4 15 3 19 -3 4 -7 20 -3 46 9 37 18 44 19 84 5 39 -13 48 -12 77 2 29 13 41
14 88 2 31 -7 66 -10 82 -5 42 11 238 5 245 -7 4 -6 19 -8 35 -4 68 17 86 18
114 6 33 -14 49 -63 32 -96 -5 -11 -8 -26 -6 -34 2 -8 8 -33 13 -54 8 -34 7
-44 -12 -70 -40 -57 -57 -69 -85 -61 -31 8 -66 8 -137 0 -35 -5 -59 -2 -79 9
-25 13 -31 13 -43 0 -17 -16 -33 -17 -86 -5 -26 6 -48 5 -67 -3 -29 -12 -123
-9 -115 4 2 4 -21 1 -52 -6 -31 -7 -60 -11 -65 -8 -4 3 -47 5 -94 5 -48 0 -95
4 -105 9 -11 7 -20 5 -28 -4 -14 -16 -96 -15 -128 3 -30 15 -58 14 -74 -5 -8
-10 -21 -13 -38 -9 -17 4 -21 2 -13 -3 11 -8 11 -10 -1 -15 -22 -8 -44 -147
-24 -147 5 0 6 -7 3 -16 -3 -8 -2 -12 4 -9 6 3 10 2 10 -4 0 -7 8 -7 25 1 19
8 28 8 40 -2 15 -12 15 -15 0 -29 -13 -13 -19 -14 -36 -3 -24 15 -34 10 -26
-13 4 -8 15 -15 25 -15 10 0 23 -5 30 -12 15 -15 68 -20 107 -9 21 5 44 4 66
-3 19 -7 48 -9 64 -6 17 3 86 4 155 2 69 -2 134 -3 145 -3 11 1 44 2 72 2 29
1 59 -4 67 -10 11 -9 20 -10 35 -2 11 6 37 11 58 11 42 -1 76 -34 74 -73 0
-12 -2 -62 -3 -110 -3 -84 -5 -90 -30 -111 -16 -12 -28 -28 -29 -36 0 -11 -2
-11 -6 -2 -2 6 -13 12 -23 12 -9 0 -23 7 -30 15 -18 21 -36 19 -74 -10 -32
-25 -63 -34 -51 -16 3 6 -3 10 -12 10 -10 1 -37 4 -60 7 -34 5 -44 3 -49 -10
-7 -18 -26 -20 -54 -6 -11 6 -29 15 -41 20 -15 8 -28 7 -51 -5 -33 -16 -68
-20 -68 -7 0 8 -48 32 -64 32 -6 0 -22 -12 -35 -25 -25 -27 -41 -32 -41 -14 0
6 -6 9 -14 6 -8 -3 -30 -1 -50 5 -29 9 -39 8 -53 -5 -10 -8 -31 -17 -48 -19
-22 -2 -31 -9 -33 -25 -2 -13 -6 -23 -10 -23 -8 0 -12 -23 -17 -111 -2 -37
-10 -80 -17 -95 -15 -30 -13 -60 4 -81 6 -8 8 -35 4 -65 -8 -63 16 -156 42
-165 9 -4 20 -11 24 -17 5 -7 8 -5 8 4 0 13 1 13 10 0 7 -11 43 -15 187 -17
98 -1 184 -2 191 -2 27 2 129 1 167 -1 22 -1 90 -2 150 -1 217 2 289 0 301
-10 8 -6 21 -6 40 2 98 38 187 -31 147 -113 -15 -28 -15 -35 -1 -73 12 -33 13
-46 4 -63 -23 -43 -73 -66 -107 -48 -34 17 -66 17 -80 0 -15 -19 -83 -18 -99
1 -16 19 -37 19 -56 0 -19 -18 -75 -20 -92 -3 -17 17 -72 19 -72 3 0 -14 -88
-9 -105 6 -15 14 -51 10 -66 -7 -11 -13 -25 -15 -80 -10 -53 6 -70 4 -82 -9
-16 -16 -43 -20 -49 -7 -1 4 -17 15 -35 25 -30 16 -35 17 -62 2 -38 -19 -75
-19 -91 0 -16 20 -45 19 -81 -2 -28 -17 -62 -14 -119 11 -9 4 -26 -4 -42 -19
-16 -14 -28 -22 -28 -17 0 8 -59 33 -92 39 -10 2 -18 -1 -18 -6 0 -20 -60 -20
-94 0 -38 22 -48 47 -36 89 5 16 4 47 -2 72 -5 24 -7 59 -3 78 8 49 8 80 -1
114 -5 20 -1 39 11 63 15 27 16 39 8 71 -12 39 -12 70 0 89 8 12 3 53 -11 100
-7 22 -7 35 -1 39 12 7 9 74 -4 91 -5 7 -7 27 -3 45 14 77 15 105 4 131 -8 21
-8 31 1 40 14 14 15 92 1 117 -7 12 -5 32 4 63 8 28 10 50 4 61 -11 19 -20
236 -9 236 11 0 13 64 3 108 -6 26 -6 46 1 58 10 18 11 36 3 106 -4 36 39 86
79 91 36 4 68 -2 76 -15z m2061 6 c20 -4 50 -2 67 4 21 7 40 7 64 0 23 -7 53
-7 91 -1 36 6 59 7 62 1 4 -6 25 -7 48 -3 46 7 88 8 156 5 25 -2 95 -2 155 -2
276 4 327 -6 333 -65 2 -23 -3 -35 -19 -46 l-21 -16 25 -46 c27 -48 25 -82 -5
-102 -7 -4 -18 -17 -24 -28 -9 -16 -19 -19 -55 -16 -24 1 -45 7 -47 12 -6 14
-48 10 -62 -6 -14 -17 -66 -14 -98 6 -18 12 -26 11 -52 -4 -32 -19 -75 -16
-111 6 -13 8 -27 6 -57 -7 -35 -16 -42 -16 -75 -2 -33 13 -41 13 -73 0 -35
-15 -99 -11 -110 7 -2 5 -27 0 -55 -11 -27 -11 -53 -19 -57 -19 -4 1 -14 1
-22 0 -13 -1 -13 -2 0 -11 13 -8 12 -10 -2 -10 -10 0 -18 -3 -19 -7 -3 -30 -9
-47 -21 -54 -10 -6 -10 -16 0 -51 7 -24 14 -50 16 -58 4 -18 -14 -60 -25 -60
-5 0 -8 -11 -7 -25 1 -14 5 -25 9 -25 4 0 11 -19 17 -41 10 -38 8 -44 -13 -65
-24 -24 -26 -38 -11 -63 15 -24 12 -79 -5 -92 -19 -13 -13 -58 9 -75 9 -7 13
-19 9 -33 -3 -12 -1 -19 5 -15 5 3 0 -12 -11 -35 -20 -39 -20 -43 -6 -72 15
-28 15 -36 -1 -101 -1 -5 -2 -9 -4 -10 -7 -10 -7 -39 1 -44 15 -9 10 -64 -8
-95 -16 -27 -16 -29 4 -51 11 -13 18 -29 15 -37 -3 -8 0 -11 7 -7 6 4 11 1 11
-8 0 -8 -4 -18 -10 -21 -21 -13 14 -43 58 -49 25 -3 53 -13 62 -21 16 -15 64
-10 54 6 -11 18 58 14 97 -5 21 -11 31 -10 59 5 34 19 64 18 107 -3 17 -9 30
-8 50 2 30 15 92 14 107 -1 16 -14 43 -10 50 7 5 14 16 16 58 11 28 -4 55 -12
59 -18 5 -9 14 -8 34 5 40 26 98 15 136 -26 34 -38 35 -47 9 -81 -24 -31 -25
-50 -3 -87 14 -24 15 -34 5 -54 -6 -15 -18 -26 -27 -26 -8 0 -15 -4 -15 -9 0
-5 -24 -8 -52 -7 -29 2 -79 -1 -110 -7 -47 -8 -62 -7 -81 6 -24 15 -42 17 -62
6 -24 -15 -67 -19 -86 -9 -15 9 -29 8 -52 0 -52 -19 -87 -22 -103 -9 -9 8 -35
10 -76 6 -33 -3 -73 -1 -87 5 -18 6 -44 6 -84 -3 -46 -9 -63 -9 -82 1 -13 7
-35 10 -49 6 -14 -3 -38 -9 -53 -12 -17 -5 -38 -1 -60 11 -27 15 -38 16 -59 7
-39 -19 -78 -14 -101 11 -25 26 -29 49 -18 100 5 26 3 46 -5 62 -7 14 -10 37
-6 57 12 63 13 73 4 106 -7 25 -5 44 6 74 13 32 14 46 5 78 -7 23 -8 49 -3 67
13 47 12 66 -4 91 -13 20 -14 31 -3 73 11 40 11 56 1 80 -10 24 -10 38 0 68
10 32 10 46 -1 77 -18 51 -18 65 -2 91 17 29 17 48 -2 76 -12 18 -12 31 -4 61
6 22 8 51 4 65 -12 43 -13 245 -1 253 11 7 10 74 -2 92 -9 14 -10 56 -1 56 15
0 29 62 18 81 -5 10 -7 19 -4 19 4 0 3 6 -1 12 -11 17 -12 48 -2 42 4 -3 8 1
8 9 0 20 43 47 74 47 14 0 37 -5 51 -10 20 -8 34 -7 53 4 15 8 38 13 52 10 14
-2 42 -7 62 -10z m-4318 -29 c28 -26 32 -50 15 -89 -7 -14 -8 -33 -4 -43 5
-10 9 -20 9 -23 1 -3 7 -15 15 -28 10 -20 10 -27 -3 -45 -33 -47 -43 -56 -72
-62 -52 -12 -71 -26 -71 -52 0 -16 2 -20 7 -13 4 7 13 9 19 6 6 -4 11 -2 11 3
0 14 20 14 40 1 13 -9 12 -12 -4 -25 -14 -11 -23 -12 -32 -4 -17 14 -54 2 -54
-17 0 -8 -4 -14 -8 -14 -5 0 -7 -27 -5 -60 4 -65 -4 -84 -50 -120 -26 -20 -28
-21 -62 -4 -58 27 -63 42 -59 162 3 96 6 108 27 130 19 18 36 24 76 25 54 2
62 9 54 49 -5 26 -16 30 -41 14 -7 -4 -24 -5 -38 -2 -22 6 -23 9 -11 21 10 10
26 12 52 8 28 -4 36 -3 31 5 -4 7 -3 12 2 12 4 0 15 15 24 33 13 27 14 37 3
57 -12 22 -8 62 10 90 3 5 26 10 49 10 32 0 50 -6 70 -25z m-1177 -16 c9 -9 8
-15 -2 -26 -13 -12 -18 -12 -42 2 -16 9 -20 14 -10 11 11 -3 17 0 17 9 0 18
21 20 37 4z m-975 -14 c0 -5 -5 -11 -10 -13 -5 -1 -9 4 -9 13 0 9 4 14 9 13 5
-2 10 -8 10 -13z m168 5 c21 -13 -2 -34 -29 -25 -17 5 -18 9 -8 20 14 17 18
17 37 5z m843 -20 c-3 -11 -11 -20 -18 -20 -10 0 -11 5 -2 24 14 28 28 25 20
-4z m292 20 c4 -6 1 -17 -5 -25 -9 -11 -17 -11 -36 -3 -13 6 -24 15 -24 20 0
5 4 7 9 3 5 -3 12 -1 16 5 8 13 32 13 40 0z m322 -28 c-13 -13 -21 -13 -42 -4
-26 12 -36 36 -11 26 8 -3 17 -1 21 5 4 8 12 8 27 0 19 -10 19 -12 5 -27z
m157 5 c-8 -5 -22 -6 -31 -3 -12 5 -13 9 -3 21 9 11 16 12 31 2 16 -10 16 -13
3 -20z m183 4 c-7 -2 -15 -8 -18 -13 -4 -6 -15 -5 -27 3 -18 11 -19 14 -5 24
12 9 22 9 39 1 13 -6 18 -13 11 -15z m308 15 c12 -12 12 -15 0 -20 -8 -3 -25
-1 -37 4 -18 7 -19 9 -5 9 9 1 17 6 17 11 0 14 9 12 25 -4z m480 -16 c-5 -8
-11 -8 -17 -2 -6 6 -7 16 -3 22 5 8 11 8 17 2 6 -6 7 -16 3 -22z m3205 10 c0
-11 -6 -20 -14 -20 -18 0 -29 16 -21 30 11 18 35 11 35 -10z m156 -15 c-5 -14
-9 -15 -21 -5 -11 9 -12 15 -2 25 15 17 32 2 23 -20z m1434 9 c0 -16 -2 -16
-24 -8 -12 5 -13 9 -3 19 14 15 27 10 27 -11z m-3515 -14 c-6 -9 -9 -9 -16 1
-10 17 0 34 13 21 6 -6 7 -16 3 -22z m169 24 c22 -8 20 -21 -4 -29 -25 -8 -41
1 -33 20 6 16 13 18 37 9z m3493 -10 c-3 -3 -12 -4 -19 -1 -8 3 -5 6 6 6 11 1
17 -2 13 -5z m1740 -76 c-3 -8 -6 -5 -6 6 -1 11 2 17 5 13 3 -3 4 -12 1 -19z
m-11094 -13 c-3 -9 -8 -14 -10 -11 -3 3 -2 9 2 15 9 16 15 13 8 -4z m4423 -63
c-15 -15 -56 -8 -56 9 0 6 4 8 9 5 5 -3 12 1 15 9 5 13 9 13 26 3 17 -11 18
-15 6 -26z m-977 14 c17 -20 -13 -43 -34 -26 -12 10 -13 16 -4 26 6 8 15 14
19 14 4 0 13 -6 19 -14z m4334 0 c9 -7 17 -17 17 -21 0 -5 -3 -5 -7 -2 -3 4
-12 2 -20 -4 -19 -17 -48 8 -32 27 14 17 19 17 42 0z m-6116 -11 c8 -21 -1
-28 -26 -20 -17 5 -18 9 -8 20 16 19 26 18 34 0z m1622 1 c18 -22 -11 -41 -38
-24 -12 7 -21 16 -21 21 0 4 5 5 10 2 6 -3 10 -1 10 4 0 16 25 14 39 -3z
m2414 -1 c7 -18 -6 -27 -27 -19 -13 5 -14 9 -5 20 15 18 25 18 32 -1z m167 5
c13 -8 12 -11 -5 -23 -14 -11 -23 -12 -36 -4 -16 10 -16 12 -1 24 21 15 23 15
42 3z m1754 1 c3 -5 -1 -14 -9 -21 -12 -10 -18 -10 -30 0 -8 7 -15 16 -15 21
0 12 47 12 54 0z m1586 -17 c0 -14 -21 -19 -33 -7 -9 9 13 34 24 27 5 -3 9
-12 9 -20z m156 15 c8 -14 -11 -33 -25 -25 -11 7 -4 36 9 36 5 0 12 -5 16 -11z
m-121 -100 c64 8 91 7 127 -4 24 -7 42 -18 41 -24 -2 -6 1 -11 6 -11 17 0 5
-41 -21 -69 l-27 -29 23 -26 c30 -31 43 -69 27 -74 -6 -2 -11 -9 -11 -15 0 -6
-7 -19 -17 -29 -15 -17 -15 -20 7 -43 35 -37 34 -70 -3 -101 l-31 -26 22 -18
c12 -10 22 -23 22 -29 0 -6 5 -11 10 -11 21 0 9 -43 -20 -68 -34 -30 -39 -57
-10 -65 10 -3 22 -17 26 -33 6 -23 2 -32 -22 -52 -33 -29 -33 -45 1 -76 36
-33 40 -60 10 -87 -30 -29 -31 -40 -5 -64 29 -26 25 -95 -5 -95 -13 0 -25 -21
-25 -46 0 -8 6 -14 14 -14 29 0 34 -48 9 -76 -22 -23 -34 -27 -97 -30 -27 -2
-71 -8 -97 -14 -39 -10 -52 -9 -78 4 -33 18 -36 29 -21 90 11 50 -16 131 -40
116 -37 -24 -63 -4 -40 30 9 13 12 13 20 -2 14 -23 45 -12 48 17 1 13 3 28 4
32 1 4 -2 25 -7 46 -7 36 -10 39 -35 33 -20 -4 -30 -1 -34 11 -10 25 8 37 32
22 34 -21 40 -5 47 126 3 44 7 91 8 105 2 14 0 37 -4 52 -4 14 -4 29 -1 33 9
9 13 87 6 105 -12 26 -12 38 -3 81 7 27 6 44 0 48 -5 4 -10 27 -11 51 -1 77 5
208 10 213 24 20 51 27 90 21 25 -3 50 -5 55 -5z m-2425 -44 c11 -13 10 -18
-6 -30 -16 -12 -21 -12 -33 0 -12 11 -12 17 -1 29 16 20 24 20 40 1z m-4670
-11 c11 -12 11 -18 -1 -30 -13 -12 -18 -12 -34 0 -16 11 -17 15 -4 29 18 20
24 21 39 1z m500 -15 c0 -11 -29 -19 -45 -13 -18 7 -19 16 -4 31 9 9 16 9 30
0 11 -7 19 -15 19 -18z m495 7 c8 4 15 1 15 -5 0 -6 -8 -11 -18 -11 -10 0 -22
-4 -27 -9 -6 -6 -17 -5 -28 4 -17 12 -17 14 5 29 19 14 23 14 30 1 5 -8 15
-12 23 -9z m1279 11 c21 -20 -7 -42 -33 -25 -18 11 -18 13 -3 25 21 16 21 16
36 0z m1456 -18 c0 -12 -32 -20 -52 -13 -18 5 -18 7 -3 24 14 16 21 17 36 7
10 -6 19 -15 19 -18z m468 8 c10 -8 7 -13 -10 -25 -16 -11 -23 -12 -26 -4 -2
7 -9 12 -16 12 -7 0 -13 7 -13 15 0 9 6 14 14 11 7 -3 13 -1 13 5 0 10 13 5
38 -14z m154 10 c15 -12 15 -14 -2 -25 -19 -11 -50 -7 -50 7 0 8 22 31 30 31
3 0 13 -6 22 -13z m173 -17 c3 -6 0 -10 -9 -10 -8 0 -16 -6 -19 -12 -3 -10 -9
-9 -22 4 -15 14 -15 18 -4 31 14 15 41 9 54 -13z m475 0 c0 -5 -9 -14 -19 -19
-14 -8 -22 -7 -31 4 -19 22 5 48 31 34 10 -5 19 -14 19 -19z m147 19 c9 -9 8
-15 -2 -25 -15 -16 -45 -8 -45 10 0 26 27 35 47 15z m160 0 c16 -16 -9 -41
-31 -33 -18 7 -18 7 -10 28 7 19 25 21 41 5z m318 1 c4 -6 11 -8 16 -5 5 4 9
2 9 -2 0 -5 -9 -14 -21 -21 -27 -17 -56 2 -38 24 14 17 25 18 34 4z m495 0
c13 -8 12 -11 -5 -24 -25 -19 -30 -19 -45 -1 -23 28 15 47 50 25z m147 -6 c9
-23 -13 -40 -32 -24 -12 10 -13 16 -4 26 15 18 28 18 36 -2z m161 -12 c2 -14
-2 -22 -12 -22 -19 0 -29 17 -22 36 8 22 30 12 34 -14z m159 12 c8 -21 -13
-42 -28 -27 -13 13 -5 43 11 43 6 0 13 -7 17 -16z m159 5 c9 -15 -11 -33 -30
-26 -9 4 -13 13 -10 22 7 17 30 20 40 4z m184 -22 c0 -5 -4 -6 -9 -2 -5 3 -12
1 -16 -5 -8 -12 -16 -12 -34 -1 -12 8 -12 12 -3 24 10 12 18 13 37 3 14 -6 25
-15 25 -19z m436 22 c8 -14 -11 -33 -25 -25 -11 7 -4 36 9 36 5 0 12 -5 16
-11z m-8016 -3 c0 -3 -4 -8 -10 -11 -5 -3 -10 -1 -10 4 0 6 5 11 10 11 6 0 10
-2 10 -4z m170 -6 c21 -13 -2 -34 -29 -25 -17 5 -18 9 -8 20 14 17 18 17 37 5z
m43 4 c8 -8 -3 -34 -14 -34 -5 0 -9 9 -9 20 0 19 11 26 23 14z m312 -5 c11
-17 -1 -21 -15 -4 -8 9 -8 15 -2 15 6 0 14 -5 17 -11z m288 -3 c10 -25 -15
-34 -43 -16 -13 9 -13 11 0 20 21 14 37 12 43 -4z m163 3 c9 -15 -11 -33 -30
-26 -9 4 -13 13 -10 22 7 17 30 20 40 4z m489 -9 c0 -18 -34 -24 -55 -10 -13
9 -13 11 0 20 21 14 55 8 55 -10z m30 11 c3 -5 1 -12 -5 -16 -5 -3 -10 1 -10
9 0 18 6 21 15 7z m464 -3 c19 -12 19 -12 -2 -23 -22 -11 -67 -1 -67 16 0 19
43 23 69 7z m1116 -17 c-9 -16 -25 -3 -18 15 4 10 9 12 15 6 6 -6 7 -15 3 -21z
m1121 0 c-4 -5 -13 -8 -22 -4 -11 4 -12 8 -3 20 14 16 36 2 25 -16z m1294 19
c8 -5 12 -10 10 -12 -34 -22 -48 -26 -59 -15 -29 29 11 52 49 27z m628 1 c10
-6 10 -10 -3 -21 -18 -15 -42 0 -31 19 8 13 16 14 34 2z m585 -12 c4 -16 3
-18 -9 -8 -7 6 -11 15 -8 20 8 13 11 11 17 -12z m57 -150 c0 -12 -7 -19 -19
-19 -26 0 -36 17 -21 35 15 18 40 8 40 -16z m626 -4 c-5 -14 -9 -15 -21 -5
-12 10 -13 16 -4 27 15 18 34 1 25 -22z m-7217 11 c14 -17 -9 -39 -33 -30 -19
7 -20 11 -3 29 15 18 22 18 36 1z m481 -1 c22 -26 -7 -46 -39 -26 -12 8 -12
12 -2 25 17 20 25 20 41 1z m160 0 c17 -21 -1 -39 -29 -30 -17 5 -19 9 -8 26
14 23 21 24 37 4z m813 -26 c-6 -6 -21 -8 -33 -4 -21 7 -21 8 -4 26 16 18 19
18 33 4 11 -11 12 -18 4 -26z m814 25 c14 -13 14 -17 2 -25 -17 -11 -21 -11
-38 0 -12 8 -12 12 -2 25 17 20 19 20 38 0z m1943 -15 c0 -11 -29 -19 -45 -13
-18 7 -19 16 -4 31 9 9 16 9 30 0 11 -7 19 -15 19 -18z m619 17 c16 -19 -13
-44 -32 -27 -8 6 -18 7 -23 3 -5 -4 0 3 10 16 22 26 29 27 45 8z m155 -2 c7
-19 -1 -34 -19 -34 -21 0 -28 19 -15 35 16 19 26 19 34 -1z m165 2 c14 -17 -9
-39 -33 -30 -19 7 -20 16 -4 32 15 15 23 15 37 -2z m162 -2 c10 -13 10 -17 -2
-25 -8 -5 -16 -9 -19 -9 -3 0 -11 4 -19 9 -12 8 -12 12 -2 25 8 9 17 16 21 16
4 0 13 -7 21 -16z m154 3 c11 -11 10 -15 -5 -25 -23 -14 -47 7 -28 26 15 15
17 15 33 -1z m156 -20 c-5 -5 -17 -7 -26 -3 -14 5 -15 9 -5 21 10 12 16 13 27
4 9 -8 10 -16 4 -22z m159 7 c0 -14 -21 -19 -33 -7 -9 9 13 34 24 27 5 -3 9
-12 9 -20z m160 12 c0 -8 -4 -17 -9 -21 -12 -7 -24 12 -16 25 9 15 25 12 25
-4z m181 4 c16 0 10 -15 -12 -28 -16 -10 -24 -10 -35 -1 -18 15 1 43 23 34 8
-3 19 -5 24 -5z m619 -24 c-15 -15 -33 4 -19 20 10 12 14 12 20 2 5 -7 4 -17
-1 -22z m160 13 c0 -11 -5 -19 -12 -17 -17 6 -19 38 -2 38 8 0 14 -9 14 -21z
m160 1 c0 -19 -11 -26 -23 -14 -8 8 3 34 14 34 5 0 9 -9 9 -20z m328 14 c29
-8 28 -20 -3 -28 -31 -8 -46 0 -38 19 6 17 9 17 41 9z m399 -16 c-3 -8 -6 -5
-6 6 -1 11 2 17 5 13 3 -3 4 -12 1 -19z m63 2 c0 -11 -6 -20 -14 -20 -18 0
-29 16 -21 30 11 18 35 11 35 -10z m-7055 0 c11 -17 -5 -32 -21 -19 -7 6 -11
15 -8 20 7 12 21 11 29 -1z m169 4 c22 -8 20 -21 -4 -29 -28 -9 -44 3 -29 21
13 16 12 16 33 8z m325 -8 c9 -10 9 -16 1 -21 -14 -9 -60 2 -60 15 0 5 7 6 17
3 11 -4 14 -3 9 5 -10 17 19 15 33 -2z m521 3 c0 -4 -11 -14 -25 -23 -19 -13
-30 -14 -45 -6 -23 12 -26 26 -7 33 17 6 77 3 77 -4z m299 -3 c10 -11 8 -16
-7 -20 -22 -7 -52 2 -52 16 0 5 5 6 10 3 6 -3 10 -1 10 4 0 16 26 13 39 -3z
m188 -8 c-3 -8 -6 -5 -6 6 -1 11 2 17 5 13 3 -3 4 -12 1 -19z m463 12 c13 -9
13 -11 0 -20 -13 -8 -47 -5 -60 7 -5 5 21 23 35 23 6 0 17 -5 25 -10z m1270
-11 c0 -5 -4 -9 -8 -9 -5 0 -9 7 -9 15 0 8 4 12 9 9 4 -3 8 -9 8 -15z m2500 5
c0 -8 -5 -12 -10 -9 -6 4 -8 11 -5 16 9 14 15 11 15 -7z m-6703 -16 c-3 -8 -6
-5 -6 6 -1 11 2 17 5 13 3 -3 4 -12 1 -19z m330 -84 c-3 -3 -12 -4 -19 -1 -8
3 -5 6 6 6 11 1 17 -2 13 -5z m5464 -67 c-4 -4 -20 -5 -34 -2 l-27 7 23 19
c20 17 23 17 35 2 7 -10 8 -21 3 -26z m312 2 c-4 -4 -15 -4 -23 1 -10 7 -11
10 -2 10 6 0 12 8 12 18 1 16 1 16 11 -1 6 -11 7 -23 2 -28z m197 11 c0 -4
-11 -12 -24 -18 -30 -14 -50 2 -35 29 8 16 13 17 34 7 14 -6 25 -14 25 -18z
m606 -6 c-4 -12 -10 -14 -17 -7 -5 5 -7 17 -3 27 4 12 10 14 17 7 5 -5 7 -17
3 -27z m480 11 c1 -8 -2 -15 -6 -15 -5 0 -8 9 -7 20 1 21 10 18 13 -5z m164 0
c0 -19 -20 -29 -32 -17 -8 8 -7 16 2 26 14 17 30 12 30 -9z m464 8 c8 -19 -7
-38 -22 -29 -11 7 -4 46 8 46 4 0 11 -8 14 -17z m-7674 -23 c0 -15 -19 -22
-40 -15 -16 5 -18 9 -8 25 9 14 16 16 30 9 10 -5 18 -14 18 -19z m637 14 c1
-5 -1 -15 -5 -21 -7 -10 -14 -10 -35 0 -27 12 -39 31 -13 21 8 -3 17 0 21 6 8
12 27 9 32 -6z m483 1 c21 -25 -3 -42 -35 -25 -23 12 -23 14 -7 26 22 17 27
17 42 -1z m161 -1 c10 -13 10 -17 -1 -24 -20 -12 -51 10 -36 26 15 17 21 17
37 -2z m164 5 c4 -6 13 -8 21 -5 8 3 14 0 14 -8 0 -7 -6 -13 -12 -13 -7 0 -20
-3 -28 -7 -21 -8 -42 8 -34 27 7 19 29 23 39 6z m331 -28 c-10 -15 -29 -14
-52 5 -15 12 -15 15 -2 10 9 -3 19 2 23 11 5 15 7 15 22 1 8 -9 12 -21 9 -27z
m158 23 c11 -28 -6 -42 -33 -25 -12 8 -12 11 0 25 18 20 25 20 33 0z m184 3
c6 0 12 -4 12 -9 0 -7 -8 -10 -26 -7 -4 0 -10 -5 -15 -12 -6 -10 -11 -10 -23
0 -20 17 -1 45 23 35 9 -3 22 -7 29 -7z m1905 -1 c18 -14 18 -14 -1 -20 -11
-4 -26 -4 -35 0 -13 5 -14 9 -4 20 15 17 18 17 40 0z m1583 -15 c-4 -5 -13 -8
-22 -4 -11 4 -12 8 -3 20 14 16 36 2 25 -16z m818 14 c18 -13 17 -14 -9 -21
-32 -8 -59 11 -35 26 19 12 21 12 44 -5z m1193 -7 c-3 -8 -6 -5 -6 6 -1 11 2
17 5 13 3 -3 4 -12 1 -19z m-7792 2 c9 -15 -3 -30 -20 -24 -7 3 -11 12 -8 20
6 16 19 18 28 4z m2758 -5 c7 -18 -6 -27 -27 -19 -19 7 -21 20 -3 27 20 9 25
8 30 -8z m144 0 c0 -8 -4 -12 -9 -9 -5 3 -6 10 -3 15 9 13 12 11 12 -6z m1127
-6 c-3 -5 -10 -7 -15 -3 -5 3 -7 10 -3 15 3 5 10 7 15 3 5 -3 7 -10 3 -15z
m3386 11 c0 -5 -4 -10 -10 -10 -5 0 -10 5 -10 10 0 6 5 10 10 10 6 0 10 -4 10
-10z m-1785 -166 c-8 -9 -22 -10 -41 -5 l-28 7 23 16 c18 13 28 14 41 6 15 -9
15 -14 5 -24z m309 6 c-6 -6 -15 -6 -24 0 -13 8 -12 10 3 10 12 0 16 5 11 13
-6 10 -4 10 7 0 8 -8 10 -16 3 -23z m166 20 c0 -5 7 -10 15 -10 8 0 15 -5 15
-12 0 -6 -3 -8 -7 -5 -3 4 -12 2 -18 -3 -7 -6 -20 -8 -29 -4 -12 5 -13 10 -5
25 10 20 29 26 29 9z m485 -4 c10 -10 11 -16 2 -25 -25 -25 -59 -2 -37 24 15
18 18 18 35 1z m155 -12 c0 -16 -16 -19 -25 -4 -8 13 4 32 16 25 5 -4 9 -13 9
-21z m475 16 c3 -5 1 -10 -4 -10 -6 0 -11 5 -11 10 0 6 2 10 4 10 3 0 8 -4 11
-10z m178 -6 c15 -6 14 -8 -9 -21 -16 -7 -31 -10 -36 -5 -12 12 2 44 16 37 6
-3 19 -8 29 -11z m394 -16 c-3 -7 -5 -2 -5 12 0 14 2 19 5 13 2 -7 2 -19 0
-25z m57 15 c8 -21 -10 -41 -24 -27 -11 11 -3 44 10 44 4 0 11 -8 14 -17z
m-7041 -6 c3 -8 2 -19 -3 -26 -6 -10 -14 -10 -36 3 -20 10 -24 15 -11 16 9 0
17 5 17 10 0 15 27 12 33 -3z m491 -4 c11 -27 -10 -38 -41 -23 -22 11 -25 14
-10 17 9 3 17 9 17 14 0 16 28 10 34 -8z m327 1 c10 -13 10 -17 -2 -25 -18
-11 -30 -11 -48 0 -12 8 -12 11 0 25 18 20 33 20 50 0z m322 2 c9 -23 -15 -34
-43 -20 -19 10 -20 14 -7 14 9 0 17 5 17 10 0 15 27 12 33 -4z m160 -24 c-17
-18 -37 -3 -27 21 5 13 9 14 24 5 16 -10 16 -13 3 -26z m180 23 c9 2 17 1 17
-2 0 -8 -33 -32 -45 -33 -5 0 -16 4 -24 9 -12 8 -12 11 0 24 8 8 19 12 24 7 6
-4 18 -6 28 -5z m470 1 c3 -8 -1 -20 -9 -26 -10 -9 -14 -9 -14 -1 0 6 -8 11
-17 11 -15 0 -14 2 3 15 24 18 31 18 37 1z m1269 -1 c0 -5 -5 -11 -10 -13 -5
-1 -9 4 -9 13 0 9 4 14 9 13 5 -2 10 -8 10 -13z m181 2 c4 3 7 1 7 -5 0 -19
-32 -31 -51 -19 -16 10 -16 12 -1 23 10 8 21 9 28 3 6 -5 14 -6 17 -2z m1573
-16 c-4 -5 -13 -8 -22 -4 -11 4 -12 8 -3 20 14 16 36 2 25 -16z m-5622 11 c2
-4 0 -14 -5 -22 -8 -12 -12 -12 -16 -2 -2 6 -10 9 -16 5 -7 -4 -6 1 2 10 15
18 27 22 35 9z m1302 -3 c9 -16 -18 -30 -33 -17 -7 6 -10 14 -7 19 7 13 31 11
40 -2z m191 -11 c-3 -8 -6 -5 -6 6 -1 11 2 17 5 13 3 -3 4 -12 1 -19z m-785
-95 c21 -19 23 -53 6 -100 -10 -26 -10 -40 0 -66 14 -36 25 -240 12 -232 -4 3
-7 -25 -6 -63 3 -76 -8 -109 -38 -118 -12 -4 -24 -11 -28 -17 -4 -6 -25 -12
-47 -13 -43 -2 -73 19 -71 52 0 11 1 31 1 47 1 15 5 27 10 27 11 0 11 67 0 94
-4 11 -4 38 1 60 5 23 9 65 8 94 -1 35 5 62 16 79 15 23 15 29 2 52 -8 14 -14
44 -13 66 0 32 5 42 25 53 31 16 97 8 122 -15z m3808 -49 c0 -22 -19 -26 -42
-10 -12 9 -17 16 -10 16 7 0 11 4 8 9 -9 13 17 20 32 8 6 -5 12 -15 12 -23z
m314 -11 c-25 -18 -48 1 -31 27 11 18 12 18 30 2 17 -15 17 -17 1 -29z m160
28 c17 -18 17 -20 -1 -30 -29 -15 -48 1 -34 28 14 26 14 26 35 2z m156 4 c16
-19 4 -35 -25 -33 -24 2 -37 18 -15 18 6 0 10 7 10 15 0 19 14 19 30 0z m159
-32 c-9 -7 -24 -10 -33 -7 -20 8 -20 9 1 34 16 18 18 18 33 2 16 -16 16 -18
-1 -29z m-4818 20 c8 -9 9 -14 2 -10 -6 4 -13 1 -15 -8 -2 -9 -8 -11 -16 -6
-13 8 -7 41 8 41 4 0 14 -8 21 -17z m992 5 c9 0 17 -6 17 -14 0 -8 -4 -13 -9
-10 -5 3 -14 -1 -21 -9 -15 -18 -27 -19 -44 -3 -18 17 2 51 24 42 8 -4 23 -6
33 -6z m2577 -21 c0 -4 -4 -5 -10 -2 -5 3 -10 1 -10 -4 0 -15 -18 -14 -34 1
-20 19 11 40 36 24 10 -6 18 -14 18 -19z m616 18 c13 -12 12 -15 -3 -23 -29
-15 -45 -5 -30 19 14 23 15 23 33 4z m793 2 c8 -10 7 -17 -1 -25 -15 -15 -39
3 -31 24 7 18 17 18 32 1z m154 -20 c-3 -5 -10 -4 -15 1 -6 6 -7 16 -3 22 6 9
9 9 16 -1 4 -7 5 -17 2 -22z m167 1 c0 -19 -16 -5 -17 14 -2 18 0 20 7 8 5 -8
10 -18 10 -22z m160 22 c0 -5 8 -10 18 -11 14 0 13 -2 -5 -11 -30 -15 -60 -3
-43 17 14 17 30 20 30 5z m489 -4 c17 -20 -13 -43 -34 -26 -12 10 -13 16 -4
26 6 8 15 14 19 14 4 0 13 -6 19 -14z m627 -15 c-4 -6 -13 -11 -19 -10 -9 0
-9 2 1 6 6 2 12 9 12 14 0 6 -5 7 -12 3 -7 -5 -8 -3 -3 5 5 9 11 9 17 3 6 -6
7 -15 4 -21z m161 13 c8 -20 -8 -36 -26 -25 -15 10 -8 41 9 41 6 0 13 -7 17
-16z m410 -6 c-3 -8 -6 -5 -6 6 -1 11 2 17 5 13 3 -3 4 -12 1 -19z m59 11 c10
-17 -13 -36 -27 -22 -12 12 -4 33 11 33 5 0 12 -5 16 -11z m-7533 -14 c4 -8 1
-17 -5 -21 -7 -4 -8 -3 -4 4 4 7 2 12 -3 12 -6 0 -11 5 -11 10 0 15 17 12 23
-5z m160 0 c7 -18 -6 -27 -27 -19 -13 5 -14 9 -5 20 15 18 25 18 32 -1z m497
5 c11 -7 12 -12 3 -21 -13 -13 -76 -2 -67 12 3 5 10 7 15 4 5 -4 9 -1 9 4 0
13 20 14 40 1z m326 -1 c10 -17 -11 -31 -39 -24 -21 6 -24 10 -14 21 15 16 43
18 53 3z m160 0 c10 -17 -12 -32 -36 -24 -17 5 -19 10 -9 21 14 17 35 18 45 3z
m483 -3 c18 -22 -11 -41 -37 -25 -19 12 -19 14 -4 26 22 16 27 16 41 -1z m172
-3 c8 -10 9 -14 2 -10 -6 4 -14 3 -18 -2 -9 -15 -35 -1 -28 15 7 19 28 18 44
-3z m645 6 c10 -17 -12 -32 -36 -24 -20 6 -21 7 -3 21 22 16 30 17 39 3z
m3774 1 c0 -5 -4 -10 -10 -10 -5 0 -10 5 -10 10 0 6 5 10 10 10 6 0 10 -4 10
-10z m880 0 c0 -5 -4 -10 -10 -10 -5 0 -10 5 -10 10 0 6 5 10 10 10 6 0 10 -4
10 -10z m-675 -18 c-3 -3 -11 0 -18 7 -9 10 -8 11 6 5 10 -3 15 -9 12 -12z
m-1592 -148 c-6 -16 -6 -16 -27 -8 -12 5 -13 10 -5 26 8 15 13 17 24 8 8 -6
11 -18 8 -26z m313 1 c-5 -13 -9 -15 -20 -6 -7 6 -17 7 -22 3 -5 -4 0 3 10 16
21 25 43 15 32 -13z m2387 22 c3 -8 1 -20 -3 -27 -7 -11 -11 -11 -24 -1 -12
10 -13 16 -3 26 15 18 24 18 30 2z m-6389 -37 c-5 -5 -20 -7 -32 -3 -22 5 -22
6 -6 25 16 17 19 17 33 3 10 -10 12 -18 5 -25z m485 26 c15 -18 -8 -37 -37
-29 -27 7 -27 12 -4 29 22 17 27 17 41 0z m817 -20 c1 -10 -5 -13 -24 -10 -36
7 -39 12 -16 28 20 15 36 8 40 -18z m1427 19 c7 -16 -8 -29 -23 -20 -10 6 -2
35 10 35 4 0 10 -7 13 -15z m483 1 c17 -18 2 -30 -26 -21 -16 5 -17 9 -7 20
15 18 16 18 33 1z m152 -10 c3 -11 -1 -17 -9 -14 -7 2 -13 12 -15 22 -3 23 20
15 24 -8z m157 6 c0 -18 -20 -15 -23 4 -3 10 1 15 10 12 7 -3 13 -10 13 -16z
m321 7 c8 -14 -11 -33 -25 -25 -11 7 -4 36 9 36 5 0 12 -5 16 -11z m319 -7 c0
-18 -20 -15 -23 4 -3 10 1 15 10 12 7 -3 13 -10 13 -16z m155 8 c0 -5 0 -12 0
-15 0 -14 -13 -8 -16 8 -1 9 2 17 7 17 5 0 9 -4 9 -10z m165 -19 c-9 -16 -25
-3 -18 15 4 10 9 12 15 6 6 -6 7 -15 3 -21z m165 3 c0 -14 -21 -19 -33 -7 -9
9 13 34 24 27 5 -3 9 -12 9 -20z m484 14 c17 -16 -1 -37 -26 -30 -21 5 -23 13
-6 30 15 15 16 15 32 0z m630 -20 c-9 -14 -23 2 -17 18 4 12 8 13 14 3 4 -7 5
-17 3 -21z m-6748 -15 c-3 -4 -6 -1 -6 6 0 7 -4 9 -10 6 -6 -4 -7 1 -3 11 6
15 7 15 15 -1 6 -9 7 -19 4 -22z m173 23 c9 -11 8 -15 -5 -20 -23 -9 -24 -8
-24 14 0 23 13 26 29 6z m659 -7 c2 -9 -4 -19 -13 -23 -16 -6 -55 13 -55 27 0
4 4 6 9 2 5 -3 13 -1 16 5 10 16 39 8 43 -11z m317 11 c4 -6 1 -17 -5 -25 -9
-11 -16 -12 -30 -2 -14 8 -16 15 -8 24 13 16 34 17 43 3z m35 0 c0 -5 -4 -10
-10 -10 -5 0 -10 5 -10 10 0 6 5 10 10 10 6 0 10 -4 10 -10z m456 -1 c10 -17
-11 -32 -35 -24 -17 5 -18 9 -8 20 15 17 33 19 43 4z m194 -5 c0 -19 -50 -36
-66 -23 -10 8 -11 15 -4 24 12 15 70 14 70 -1z m1717 1 c0 -8 -4 -12 -9 -9 -4
3 -8 9 -8 15 0 5 4 9 8 9 5 0 9 -7 9 -15z m3773 5 c0 -5 -2 -10 -4 -10 -3 0
-8 5 -11 10 -3 6 -1 10 4 10 6 0 11 -4 11 -10z m-5805 -105 c14 -13 25 -31 25
-40 0 -8 5 -15 12 -15 6 0 3 -10 -8 -22 -12 -14 -14 -18 -4 -13 8 4 5 -3 -8
-17 -21 -23 -21 -26 -7 -56 26 -52 25 -67 -6 -88 -16 -10 -32 -27 -35 -36 -4
-13 -13 -15 -42 -11 -72 11 -101 69 -74 150 8 26 8 36 -4 47 -22 23 -16 59 15
94 39 42 99 45 136 7z m118 -70 c-12 -9 -22 -9 -39 -1 l-24 11 23 17 c20 15
23 15 39 1 16 -15 17 -17 1 -28z m2869 3 c-13 -13 -24 5 -16 27 7 16 8 16 17
0 6 -11 6 -20 -1 -27z m324 7 c-5 -13 -9 -15 -20 -6 -7 6 -17 7 -22 3 -5 -4 0
3 10 16 21 25 43 15 32 -13z m160 0 c-5 -13 -9 -15 -20 -6 -7 6 -17 7 -22 3
-5 -4 0 3 10 16 21 25 43 15 32 -13z m2390 24 c10 -17 -13 -36 -27 -22 -12 12
-4 33 11 33 5 0 12 -5 16 -11z m-6553 -13 c9 -23 -17 -38 -47 -26 -32 12 -33
18 -3 30 32 13 44 12 50 -4z m192 -7 c5 -5 6 -9 2 -9 -15 0 -23 -2 -40 -12
-25 -13 -52 8 -36 28 12 14 55 10 74 -7z m296 9 c0 -10 2 -10 6 0 8 19 23 14
23 -8 0 -11 -3 -19 -7 -18 -5 1 -18 -1 -30 -6 -13 -4 -31 -2 -43 4 -21 11 -21
12 -3 25 23 18 53 19 54 3z m484 1 c4 -6 13 -8 21 -5 22 9 16 -2 -11 -20 -20
-13 -28 -14 -39 -4 -8 6 -12 18 -9 26 6 16 29 19 38 3z m484 -3 c9 -10 8 -16
-3 -26 -12 -9 -20 -9 -38 4 -18 13 -19 16 -5 16 9 0 17 5 17 10 0 14 16 12 29
-4z m156 -16 c-5 -8 -11 -8 -17 -2 -6 6 -7 16 -3 22 5 8 11 8 17 2 6 -6 7 -16
3 -22z m165 10 c0 -21 -15 -27 -25 -10 -7 12 2 30 16 30 5 0 9 -9 9 -20z m160
0 c0 -11 -4 -20 -9 -20 -14 0 -23 18 -16 30 10 17 25 11 25 -10z m160 -6 c0
-16 -16 -19 -25 -4 -8 13 4 32 16 25 5 -4 9 -13 9 -21z m155 -3 c-9 -16 -25
-3 -18 15 4 10 9 12 15 6 6 -6 7 -15 3 -21z m158 -2 c-8 -8 -13 -8 -17 0 -4 6
-2 11 4 11 6 0 8 6 4 13 -6 10 -4 10 7 0 9 -10 10 -16 2 -24z m164 16 c0 -8
-4 -15 -9 -15 -4 0 -8 7 -8 15 0 8 4 15 8 15 5 0 9 -7 9 -15z m150 -5 c2 -19
-8 -26 -20 -14 -7 7 2 34 12 34 4 0 7 -9 8 -20z m168 11 c7 -12 -12 -24 -25
-16 -11 7 -4 25 10 25 5 0 11 -4 15 -9z m478 -5 c18 -14 18 -14 -1 -20 -11 -4
-26 -4 -35 0 -13 5 -14 9 -4 20 15 17 18 17 40 0z m157 -7 c0 -24 -23 -21 -28
4 -2 10 3 17 12 17 10 0 16 -9 16 -21z m314 -9 c-6 -6 -18 -8 -28 -4 -15 6
-15 7 1 20 21 15 44 1 27 -16z m485 18 c18 -11 18 -13 3 -24 -22 -16 -55 3
-38 22 14 16 12 16 35 2z m158 -4 c8 -20 -8 -36 -26 -25 -15 10 -8 41 9 41 6
0 13 -7 17 -16z m156 -15 c-17 -17 -37 -1 -22 17 8 10 15 12 23 4 7 -7 7 -13
-1 -21z m163 2 c-4 -5 -13 -8 -22 -4 -11 4 -12 8 -3 20 14 16 36 2 25 -16z
m478 13 c8 -21 1 -28 -18 -21 -9 4 -13 13 -10 22 8 20 20 19 28 -1z m313 1 c0
-8 -4 -12 -9 -9 -5 3 -6 10 -3 15 9 13 12 11 12 -6z m160 -7 c2 -17 0 -19 -7
-8 -5 8 -6 18 -4 22 8 12 10 10 11 -14z m166 -9 c-17 -17 -37 -1 -22 17 8 10
15 12 23 4 7 -7 7 -13 -1 -21z m-6909 -11 c-9 -14 -23 2 -17 18 4 12 8 13 14
3 4 -7 5 -17 3 -21z m166 18 c0 -8 -4 -17 -9 -20 -10 -7 -23 19 -14 28 11 11
23 6 23 -8z m167 -1 c20 -21 11 -29 -22 -21 -22 6 -25 9 -15 21 15 19 18 19
37 0z m4337 -155 c-6 -6 -18 -8 -27 -4 -13 5 -14 9 -4 25 10 16 13 17 26 4 11
-10 12 -18 5 -25z m-2708 16 c8 -8 14 -18 14 -22 0 -4 -3 -4 -7 -1 -3 4 -13 2
-20 -5 -19 -15 -37 10 -21 29 13 16 16 16 34 -1z m491 -2 c14 -14 14 -16 -3
-29 -23 -17 -34 -19 -34 -5 0 6 -7 10 -15 10 -20 0 -19 10 3 26 22 17 30 17
49 -2z m156 2 c8 -22 -12 -37 -33 -24 -13 9 -15 14 -6 24 15 17 33 17 39 0z
m497 -17 c0 -11 -29 -19 -45 -13 -18 7 -19 11 -3 28 10 10 17 11 30 2 10 -6
18 -14 18 -17z m144 18 c11 -10 10 -15 -1 -26 -20 -18 -49 5 -32 25 14 17 17
17 33 1z m160 -25 c-12 -11 -18 -12 -29 -2 -23 19 0 43 25 28 15 -10 16 -13 4
-26z m160 25 c17 -16 -5 -40 -28 -31 -19 7 -20 16 -4 32 15 15 17 15 32 -1z
m793 -6 c10 -16 9 -20 -3 -25 -20 -8 -26 -7 -43 3 -12 8 -12 11 0 25 19 21 32
20 46 -3z m156 5 c15 -12 15 -15 3 -26 -8 -6 -24 -9 -35 -5 -17 5 -19 9 -8 26
14 22 16 23 40 5z m316 -22 c-9 -11 -15 -12 -25 -3 -11 9 -12 15 -3 25 9 11
15 12 25 3 11 -9 12 -15 3 -25z m161 21 c22 -26 -7 -46 -39 -26 -12 8 -12 11
0 25 18 19 24 20 39 1z m163 1 c17 -13 17 -14 0 -21 -17 -8 -44 -7 -52 0 -4 4
22 34 29 34 3 0 13 -6 23 -13z m154 -2 c9 -23 -13 -40 -32 -24 -12 10 -13 16
-4 26 15 18 28 18 36 -2z m163 1 c13 -16 6 -35 -14 -35 -22 0 -37 25 -24 38
16 16 23 15 38 -3z m157 -1 c7 -20 -8 -36 -25 -25 -14 8 -6 41 9 41 5 0 12 -7
16 -16z m163 -9 c0 -19 -13 -25 -30 -15 -11 7 -11 11 -1 24 15 17 31 13 31 -9z
m483 11 c8 -21 -17 -40 -31 -23 -9 10 -8 17 0 25 16 16 25 15 31 -2z m158 -19
c-5 -5 -17 -7 -26 -3 -14 5 -15 9 -5 21 10 12 16 13 27 4 9 -8 10 -16 4 -22z
m163 0 c-8 -5 -22 -6 -30 -3 -12 5 -13 8 -2 20 9 10 17 11 30 2 15 -9 16 -12
2 -19z m152 18 c3 -8 3 -19 -1 -25 -10 -16 -35 7 -28 26 7 18 22 18 29 -1z
m160 0 c3 -8 3 -19 -1 -25 -10 -16 -35 7 -28 26 7 18 22 18 29 -1z m160 4 c9
-16 -10 -31 -30 -23 -13 5 -14 9 -5 20 14 17 25 18 35 3z m459 -18 c-9 -16
-25 -3 -18 15 4 10 9 12 15 6 6 -6 7 -15 3 -21z m-7682 -17 c-7 -18 -17 -18
-32 -1 -8 10 -7 17 1 25 15 15 39 -3 31 -24z m160 23 c8 -21 -7 -39 -26 -31
-20 7 -21 16 -5 32 16 16 25 15 31 -1z m160 -35 c-14 -14 -17 -14 -29 3 -10
14 -11 22 -2 32 9 11 14 11 29 -3 17 -15 17 -18 2 -32z m166 34 c9 -11 8 -15
-5 -20 -20 -8 -39 7 -30 23 10 15 21 14 35 -3z m41 -7 c0 -14 -17 -10 -23 5
-4 10 -1 13 9 9 7 -3 14 -9 14 -14z m609 7 c19 -22 -10 -39 -45 -26 l-28 11
24 14 c33 17 36 17 49 1z m481 4 c0 -7 6 -7 20 0 15 8 20 8 20 -2 0 -21 -48
-38 -76 -28 -13 5 -24 15 -24 21 0 6 7 9 15 5 8 -3 15 -1 15 4 0 6 7 10 15 10
8 0 15 -5 15 -10z m335 0 c3 -6 -1 -17 -9 -25 -12 -13 -19 -13 -35 -3 -18 11
-18 13 -3 25 21 15 39 16 47 3z m971 -4 c12 -13 11 -16 -7 -21 -23 -8 -45 7
-35 24 10 15 25 14 42 -3z m158 8 c21 -8 20 -21 -3 -29 -29 -9 -54 4 -40 21
13 16 20 17 43 8z m792 -5 c10 -17 -13 -36 -27 -22 -12 12 -4 33 11 33 5 0 12
-5 16 -11z m158 5 c9 -3 16 -10 16 -14 0 -12 -28 -20 -45 -14 -12 5 -13 10 -4
20 13 16 12 16 33 8z m3221 -4 c3 -5 1 -10 -4 -10 -6 0 -11 5 -11 10 0 6 2 10
4 10 3 0 8 -4 11 -10z m-7411 -9 c3 -5 -2 -15 -11 -22 -15 -12 -16 -12 -10 3
4 13 2 15 -10 11 -11 -4 -14 -2 -9 5 8 14 32 16 40 3z m521 0 c3 -5 1 -12 -5
-16 -5 -3 -10 1 -10 9 0 18 6 21 15 7z m189 -118 c14 -29 15 -40 4 -69 -6 -19
-16 -34 -20 -34 -5 0 -6 -12 -2 -27 17 -75 16 -101 -3 -112 -48 -25 -101 -37
-124 -29 -13 5 -35 7 -49 3 -65 -15 -99 -16 -122 -2 -20 13 -30 13 -82 0 -45
-12 -64 -13 -78 -4 -22 14 -58 14 -92 1 -49 -18 -86 11 -91 72 -1 10 -4 21 -8
24 -3 4 1 13 10 22 12 12 14 29 9 75 -7 65 4 97 34 97 11 0 20 4 20 9 0 4 130
8 289 8 l289 0 16 -34z m1438 10 c33 -32 34 -42 9 -91 -17 -33 -17 -40 -5 -57
29 -39 15 -84 -36 -119 -35 -23 -66 -20 -90 11 -21 26 -23 63 -6 104 4 8 2 29
-5 45 -17 44 -22 84 -10 84 6 0 11 5 11 11 0 20 33 38 69 39 25 0 43 -8 63
-27z m-212 7 c0 -5 -5 -10 -11 -10 -5 0 -7 5 -4 10 3 6 8 10 11 10 2 0 4 -4 4
-10z m2261 -62 c-32 -12 -53 0 -40 23 9 18 11 18 35 2 26 -16 26 -17 5 -25z
m3339 22 c0 -22 -1 -23 -24 -14 -13 5 -14 9 -5 20 16 20 29 17 29 -6z m145 10
c-3 -5 -1 -10 6 -10 10 0 10 -3 2 -11 -6 -6 -16 -8 -22 -5 -12 8 -4 36 11 36
5 0 6 -4 3 -10z m-3650 -14 c12 -12 12 -15 1 -19 -8 -3 -24 -3 -35 0 -20 5
-20 6 -4 19 23 17 22 17 38 0z m1911 -1 c10 -24 -5 -36 -27 -24 -16 8 -18 13
-8 25 15 18 28 18 35 -1z m164 -5 c0 -21 -24 -28 -35 -10 -8 14 3 30 21 30 8
0 14 -9 14 -20z m1380 16 c0 -3 -4 -8 -10 -11 -5 -3 -10 -1 -10 4 0 6 5 11 10
11 6 0 10 -2 10 -4z m-7489 -48 c-12 -4 -28 -5 -36 -1 -14 5 -14 8 1 24 16 18
18 18 36 2 19 -17 19 -17 -1 -25z m39 14 c0 -15 -2 -15 -10 -2 -13 20 -13 33
0 25 6 -3 10 -14 10 -23z m769 14 c19 -22 -10 -39 -45 -26 l-28 11 24 14 c33
17 36 17 49 1z m165 -2 c11 -30 -13 -44 -43 -25 -12 8 -12 12 -2 25 17 20 37
20 45 0z m321 6 c3 -5 12 -7 20 -3 8 3 15 -1 15 -8 0 -7 -3 -9 -7 -6 -3 4 -15
0 -25 -10 -16 -14 -22 -14 -46 -3 -22 11 -24 14 -9 17 9 3 17 9 17 14 0 12 27
12 35 -1z m331 -1 c3 -6 0 -18 -9 -26 -20 -20 -62 2 -43 23 14 16 42 18 52 3z
m158 -6 c9 -22 -13 -34 -37 -22 -14 8 -16 13 -6 25 15 19 35 18 43 -3z m164 5
c9 -9 12 -9 12 0 0 7 5 12 10 12 17 0 10 -14 -16 -33 -19 -15 -28 -16 -39 -7
-15 13 -9 40 9 40 7 0 17 -5 24 -12z m322 1 c0 -8 5 -8 15 1 9 7 15 8 15 2 0
-5 -11 -17 -25 -26 -20 -13 -28 -14 -44 -4 -18 11 -18 13 -3 25 21 16 42 17
42 2z m-1420 -9 c0 -5 -4 -10 -10 -10 -5 0 -10 5 -10 10 0 6 5 10 10 10 6 0
10 -4 10 -10z m160 -6 c0 -8 -4 -12 -10 -9 -5 3 -10 10 -10 16 0 5 5 9 10 9 6
0 10 -7 10 -16z m3019 -151 c-15 -18 -34 -1 -25 22 5 14 9 15 21 5 12 -10 13
-16 4 -27z m167 23 c8 -8 14 -18 14 -22 0 -4 -3 -4 -7 -1 -3 4 -11 3 -17 -3
-7 -5 -18 -5 -26 0 -11 7 -11 11 -1 24 16 20 19 20 37 2z m1757 -22 c-6 -16
-22 -18 -43 -4 -13 8 -12 11 5 24 23 16 47 4 38 -20z m1581 2 c-5 -12 -10 -14
-20 -5 -10 8 -11 14 -1 24 15 17 30 4 21 -19z m-1424 10 c0 -8 -4 -17 -8 -20
-13 -8 -35 11 -28 23 10 16 36 14 36 -3z m-6111 -10 c9 -10 8 -15 -4 -20 -8
-3 -22 -3 -30 0 -11 5 -12 9 -2 20 15 17 22 17 36 0z m802 -19 c-5 -5 -17 -7
-26 -3 -14 5 -15 9 -5 21 10 12 16 13 27 4 9 -8 10 -16 4 -22z m163 -4 c-12
-12 -16 -12 -28 0 -11 10 -12 17 -4 25 7 7 16 7 28 0 15 -10 16 -14 4 -25z
m41 27 c3 -5 1 -10 -4 -10 -6 0 -11 5 -11 10 0 6 2 10 4 10 3 0 8 -4 11 -10z
m290 -3 c21 -22 -13 -37 -45 -20 -18 9 -20 13 -7 13 9 0 17 5 17 10 0 14 19
12 35 -3z m319 7 c21 -8 20 -21 -3 -29 -29 -9 -54 4 -40 21 13 16 20 17 43 8z
m165 -8 c17 -20 -13 -44 -34 -26 -11 9 -12 15 -2 25 15 18 22 18 36 1z m170 0
c10 -11 8 -16 -7 -20 -30 -10 -55 3 -41 20 15 18 33 18 48 0z m325 -1 c8 -21
-14 -28 -45 -16 -17 7 -19 10 -6 10 9 1 17 6 17 11 0 16 27 12 34 -5z m3359
-92 c-7 -2 -19 -2 -25 0 -7 3 -2 5 12 5 14 0 19 -2 13 -5z m-961 -36 c15 -12
15 -14 -4 -26 -26 -16 -55 3 -37 25 14 17 19 17 41 1z m4638 1 c0 23 46 13 58
-13 16 -34 15 -38 -8 -63 -24 -26 -52 -28 -74 -6 -15 15 -15 26 -1 72 6 18 10
20 16 10 7 -10 9 -10 9 0z m-6075 -23 c0 -10 -5 -20 -11 -22 -13 -4 -27 24
-18 38 9 15 29 4 29 -16z m315 -9 c-15 -15 -33 4 -19 20 10 12 14 12 20 2 5
-7 4 -17 -1 -22z m157 -3 c-3 -3 -11 -2 -17 2 -8 5 -7 11 2 22 12 15 13 14 16
-1 2 -10 1 -20 -1 -23z m163 3 c-14 -14 -24 0 -16 21 6 15 8 15 16 3 6 -9 5
-19 0 -24z m479 21 c13 -16 5 -27 -21 -27 -20 0 -21 1 -12 24 7 20 18 20 33 3z
m163 0 c15 -12 15 -14 -2 -25 -11 -6 -26 -9 -34 -6 -12 5 -13 9 -3 25 14 22
16 23 39 6z m324 2 c10 -17 -12 -32 -36 -24 -17 5 -19 10 -9 21 14 17 35 18
45 3z m153 -3 c17 -20 -13 -44 -34 -26 -11 9 -12 15 -2 25 15 18 22 18 36 1z
m160 1 c16 -20 -6 -39 -29 -25 -13 9 -15 14 -6 24 14 17 21 17 35 1z m154 0
c9 -23 -8 -40 -22 -23 -13 15 -7 36 9 36 4 0 10 -6 13 -13z m161 -4 c8 -21 -6
-35 -27 -27 -13 5 -14 10 -6 25 12 23 25 24 33 2z m163 1 c7 -20 -9 -36 -30
-28 -13 5 -14 9 -4 25 14 23 26 24 34 3z m160 0 c8 -20 -13 -42 -27 -28 -12
12 -3 44 11 44 5 0 12 -7 16 -16z m158 -5 c0 -8 -10 -15 -22 -15 -19 -1 -21 2
-12 18 11 21 34 19 34 -3z m318 6 c0 -6 -7 -11 -16 -13 -12 -3 -15 1 -11 13 7
17 25 17 27 0z m167 1 c0 -16 -18 -31 -27 -22 -8 8 5 36 17 36 5 0 10 -6 10
-14z m153 -11 c-12 -32 -23 -14 -14 23 1 2 5 1 11 -3 5 -3 7 -12 3 -20z m163
14 c10 -17 -13 -36 -27 -22 -12 12 -4 33 11 33 5 0 12 -5 16 -11z m160 0 c10
-17 -13 -36 -27 -22 -12 12 -4 33 11 33 5 0 12 -5 16 -11z m160 0 c10 -17 -13
-36 -27 -22 -12 12 -4 33 11 33 5 0 12 -5 16 -11z m159 -9 c0 -7 -6 -15 -12
-17 -8 -3 -13 4 -13 17 0 13 5 20 13 18 6 -3 12 -11 12 -18z m155 4 c0 -8 -5
-12 -10 -9 -6 4 -8 11 -5 16 9 14 15 11 15 -7z m-8898 -6 c27 -22 28 -65 2
-89 -27 -25 -55 -19 -78 16 -15 23 -15 28 -1 55 17 32 49 40 77 18z m3454 -23
c-5 -14 -9 -15 -21 -5 -12 10 -13 16 -4 27 15 18 34 1 25 -22z m164 9 c0 -16
-26 -19 -35 -4 -3 6 1 7 10 4 11 -5 14 -2 8 12 -4 12 -3 15 5 10 7 -4 12 -14
12 -22z m330 11 c11 -13 10 -14 -5 -9 -14 6 -16 4 -10 -6 5 -8 4 -11 -3 -6 -6
4 -9 13 -5 21 7 19 8 19 23 0z m160 -5 c0 -22 -1 -23 -24 -14 -13 5 -14 9 -5
20 16 20 29 17 29 -6z m160 0 c0 -22 -1 -23 -24 -14 -13 5 -14 9 -5 20 16 20
29 17 29 -6z m163 5 c7 -16 -8 -29 -23 -20 -10 6 -2 35 10 35 4 0 10 -7 13
-15z m163 4 c3 -6 1 -16 -5 -22 -9 -9 -14 -8 -21 3 -9 15 -4 30 10 30 5 0 12
-5 16 -11z m317 5 c3 -3 3 -12 0 -20 -4 -11 -9 -12 -19 -3 -8 6 -11 15 -8 20
6 10 18 12 27 3z m637 2 c0 -2 -7 -7 -16 -10 -8 -3 -12 -2 -9 4 6 10 25 14 25
6z m158 -8 c-6 -18 -28 -21 -28 -4 0 9 7 16 16 16 9 0 14 -5 12 -12z m1910 -3
c-4 -11 -28 -16 -28 -6 0 12 13 22 23 18 5 -1 7 -7 5 -12z m-5945 -26 c-17
-17 -37 -1 -22 17 8 10 15 12 23 4 7 -7 7 -13 -1 -21z m159 -11 c-7 -7 -15 -6
-25 3 -12 12 -12 15 2 26 13 9 18 8 25 -4 5 -9 4 -19 -2 -25z m164 31 c3 -6 2
-15 -2 -19 -12 -12 -38 5 -30 19 9 14 23 14 32 0z m159 -19 c-5 -8 -11 -8 -21
1 -12 10 -12 14 -2 20 16 10 33 -5 23 -21z m495 10 c0 -13 -19 -22 -30 -15
-14 9 0 34 16 28 8 -3 14 -9 14 -13z m161 -3 c-5 -5 -18 -7 -28 -3 -14 6 -15
9 -4 16 19 11 46 1 32 -13z m165 12 c3 -6 1 -16 -4 -21 -13 -13 -45 8 -36 23
7 12 31 11 40 -2z m157 -4 c8 -18 -11 -31 -25 -17 -11 11 -3 32 12 32 4 0 10
-7 13 -15z m160 1 c6 -15 -1 -26 -15 -26 -4 0 -8 9 -8 20 0 23 15 27 23 6z
m490 -11 c-6 -16 -16 -19 -26 -8 -9 8 13 34 24 28 4 -3 6 -12 2 -20z m-2282
-18 c-8 -8 -11 -7 -11 4 0 9 3 19 7 23 4 4 9 2 11 -4 3 -7 -1 -17 -7 -23z
m4521 -119 c-15 -15 -26 -4 -18 18 5 13 9 15 18 6 9 -9 9 -15 0 -24z m161 18
c6 -15 -1 -26 -15 -26 -4 0 -8 9 -8 20 0 23 15 27 23 6z m161 -17 c-10 -16
-24 -9 -24 12 0 18 2 19 15 9 8 -7 12 -16 9 -21z m151 8 c0 -26 -20 -25 -23 2
-3 16 1 22 10 19 7 -3 13 -12 13 -21z m485 3 c0 -11 -4 -20 -9 -20 -14 0 -23
18 -16 30 10 17 25 11 25 -10z m-1118 -5 c0 -5 -5 -11 -11 -13 -6 -2 -11 4
-11 13 0 9 5 15 11 13 6 -2 11 -8 11 -13z m798 0 c0 -8 -4 -15 -10 -15 -5 0
-10 7 -10 15 0 8 5 15 10 15 6 0 10 -7 10 -15z m477 -5 c-1 -21 -12 -26 -22
-10 -3 6 -1 10 5 10 6 0 8 5 5 10 -3 6 -2 10 4 10 5 0 9 -9 8 -20z m163 0 c0
-13 -5 -18 -14 -14 -8 3 -12 12 -9 20 8 21 23 17 23 -6z"/>
<path d="M11364 2445 c-3 -8 -3 -19 1 -25 11 -17 35 -11 35 9 0 23 -29 36 -36
16z"/>
<path d="M491 2417 c-15 -19 3 -42 25 -32 11 5 22 7 27 7 14 -3 7 6 -17 21
-19 13 -26 14 -35 4z"/>
<path d="M11720 4623 c0 -4 5 -15 10 -23 8 -13 10 -13 10 2 0 9 -4 20 -10 23
-5 3 -10 3 -10 -2z"/>
<path d="M157 4593 c-4 -3 -7 -11 -7 -17 0 -6 5 -5 12 2 6 6 9 14 7 17 -3 3
-9 2 -12 -2z"/>
<path d="M11687 4394 c-12 -12 -8 -35 9 -52 15 -15 18 -14 31 3 7 11 12 26 11
35 -3 16 -39 26 -51 14z"/>
<path d="M154 4353 c10 -39 22 -49 41 -33 26 21 15 54 -19 58 -27 3 -28 2 -22
-25z"/>
<path d="M133 2432 c-1 -22 0 -24 9 -8 6 10 6 22 2 26 -5 5 -10 -3 -11 -18z"/>
</g>
</svg>
